<svg xmlns="http://www.w3.org/2000/svg" width="263.257" height="82.625" viewBox="0 0 263.257 82.625">
  <g id="line-down" transform="translate(0.408 0.95)">
    <path id="Vector" d="M262,81.146l-6.8-10.91c-3.09-6.044-4.374-.443-10.2-2.98S232.889,44.49,227.067,45.45,215.422,56.692,209.6,56.407,197.956,45.27,192.133,41.8s-11.644,30.235-17.467,28.439S163.022,60.944,157.2,50.5s-11.644-23.828-17.467-19.565-11.644,26.175-17.467,36.319-11.644,8.52-17.467-4.212S93.156,26.473,87.333,23.885,75.689,39.963,69.867,52.264,58.222,70.5,52.4,63.293,40.756,35.726,34.933,22.347,23.289,2.567,17.467.67,5.822,1.378,2.911,2.68L0,3.983" transform="translate(0 0)" fill="none" stroke="red" stroke-width="2"/>
    <g id="Ellipse_4" data-name="Ellipse 4" transform="translate(133.531 21.164)" fill="red" stroke="#fff" stroke-width="4">
      <ellipse cx="9.286" cy="9.286" rx="9.286" ry="9.286" stroke="none"/>
      <ellipse cx="9.286" cy="9.286" rx="7.286" ry="7.286" fill="none"/>
    </g>
  </g>
</svg>
