<svg xmlns="http://www.w3.org/2000/svg" width="295.827" height="92.707" viewBox="0 0 295.827 92.707">
  <g id="line2" transform="translate(0.849 0.944)">
    <path id="Vector" d="M0,91.234,7.642,78.968c3.474-6.8,4.917-.5,11.463-3.35S32.73,50.02,39.276,51.1,52.368,63.74,58.914,63.419,72.006,50.9,78.552,46.993,91.644,80.986,98.19,78.968s13.092-10.447,19.638-22.187,13.092-26.79,19.638-22S150.558,64.212,157.1,75.618,170.2,85.2,176.742,70.882s13.092-41.118,19.638-44.028,13.092,18.076,19.638,31.906,13.092,20.507,19.638,12.4,13.092-30.995,19.638-46.037S268.385,2.886,274.931.753s13.092.8,16.365,2.261l3.273,1.465" transform="translate(0 0)" fill="none" stroke="#1d2b4f" stroke-width="2"/>
    <g id="Ellipse_4" data-name="Ellipse 4" transform="translate(123.559 23.796)" fill="#1d2b4f" stroke="#fff" stroke-width="4">
      <circle cx="10.44" cy="10.44" r="10.44" stroke="none"/>
      <circle cx="10.44" cy="10.44" r="8.44" fill="none"/>
    </g>
  </g>
</svg>
