<svg xmlns="http://www.w3.org/2000/svg" width="36.422" height="47.754" viewBox="0 0 36.422 47.754">
  <g id="logo" transform="translate(-22.365 -16.699)">
    <path id="Path_991" data-name="Path 991" d="M87.66,220.655h3.282c1.363,0,2.4.7,2.4,1.976a1.642,1.642,0,0,1-1.19,1.66v.029a1.374,1.374,0,0,1,1,1.257c.144.9.048,1.766.288,1.852v.086H91.787c-.182-.105-.154-.912-.259-1.593a1.007,1.007,0,0,0-1.142-.979H89.359v2.572h-1.7Zm2.975,3.032c.672,0,1.018-.317,1.018-.835,0-.5-.327-.854-.979-.854H89.359v1.689Z" transform="translate(-64.845 -163.227)" fill="#10213f"/>
    <path id="Path_992" data-name="Path 992" d="M117.076,220.654h1.747l2.477,6.862h-1.785l-.4-1.238h-2.4l-.393,1.238H114.61Zm1.642,4.405-.519-1.66c-.115-.355-.268-.969-.268-.969h-.02s-.163.614-.278.969l-.528,1.66Z" transform="translate(-84.781 -163.226)" fill="#10213f"/>
    <path id="Path_993" data-name="Path 993" d="M145.839,220.654h3.311a2.473,2.473,0,0,1,1.6.47,1.629,1.629,0,0,1,.595,1.315,1.346,1.346,0,0,1-.96,1.343v.029a1.7,1.7,0,0,1,1.229,1.679,1.814,1.814,0,0,1-.7,1.536,2.681,2.681,0,0,1-1.69.49h-3.388Zm3.061,2.716c.489,0,.826-.24.826-.691,0-.432-.316-.681-.815-.681h-1.392v1.373Zm.135,2.783a.8.8,0,0,0,.9-.806.818.818,0,0,0-.922-.826h-1.5v1.632Z" transform="translate(-107.883 -163.226)" fill="#10213f"/>
    <path id="Path_994" data-name="Path 994" d="M173.38,223.716a3.4,3.4,0,1,1,3.388,3.58,3.323,3.323,0,0,1-3.388-3.58m5.058,0c0-1.248-.547-2.207-1.66-2.207s-1.67.959-1.67,2.207.566,2.2,1.67,2.2,1.66-.95,1.66-2.2" transform="translate(-128.256 -162.843)" fill="#10213f"/>
    <path id="Path_995" data-name="Path 995" d="M205.39,222.094h-2v-1.439H209.1v1.439h-2.016v5.423h-1.7Z" transform="translate(-150.458 -163.227)" fill="#10213f"/>
    <path id="Path_996" data-name="Path 996" d="M122.356,73.624a9.47,9.47,0,0,0-9.461-9.46h-17.5a9.47,9.47,0,0,0-9.461,9.46v17.5A9.451,9.451,0,0,0,103.363,96.2l.646-1.01.712.965a9.449,9.449,0,1,0,13.205-13.206l-.966-.712,1.012-.646a9.426,9.426,0,0,0,4.383-7.969m-20.05,17.5a6.912,6.912,0,1,1-13.824,0V80.262l1.314.97a9.372,9.372,0,0,0,5.6,1.853h6.912Zm0-10.59H95.395a6.912,6.912,0,1,1,6.912-6.912Zm16.937,10.025a6.912,6.912,0,1,1-6.912-6.912,6.919,6.919,0,0,1,6.912,6.912M112.9,80.536h-8.04V73.624a9.37,9.37,0,0,0-1.853-5.6l-.97-1.314H112.9a6.912,6.912,0,1,1,0,13.823" transform="translate(-63.569 -47.465)" fill="#10213f"/>
  </g>
</svg>
