<svg xmlns="http://www.w3.org/2000/svg" width="1302.645" height="191.446" viewBox="0 0 1302.645 191.446">
  <g id="main-chart" transform="translate(-7.822 0.868)">
    <path id="Vector" d="M0,52.459l14.467,7.652C28.933,67.764,57.867,83.069,86.8,83.06s57.867-15.333,86.8,1.366,57.867,65.419,86.8,69.251,57.867-37.222,86.8-36.217,57.867,44.071,86.8,57.262,57.867-3.493,86.8-35.2,57.867-78.443,86.8-99.559,57.867-16.614,86.8-8.675,57.867,19.313,86.8,28.46S839.067,75.816,868,87.764s57.867,28.923,86.8,14.6,57.867-59.948,86.8-75.849,57.867-2.079,86.8,1.069,57.867-4.379,86.8-10.755,57.867-11.6,72.333-14.215L1302,0" transform="translate(1310 179.266) rotate(180)" fill="none" stroke="#f8c140" stroke-width="2"/>
    <path id="Vector-2" data-name="Vector" d="M0,58.035l5.1.975c14.467,7.652,38.3,24.059,67.235,24.05s57.867-15.333,86.8,1.366,57.867,65.419,86.8,69.251,57.867-37.222,86.8-36.217,57.867,44.071,86.8,57.262,57.867-3.493,86.8-35.2,57.867-78.443,86.8-99.559,57.867-16.614,86.8-8.675,57.867,19.313,86.8,28.46,57.867,16.069,86.8,28.017,57.867,28.923,86.8,14.6,57.867-59.948,86.8-75.849,57.867-2.079,86.8,1.069,57.867-4.379,86.8-10.755,57.867-11.6,72.333-14.215L1287.533,0" transform="translate(1303.533 189.594) rotate(180)" fill="none" stroke="#888" stroke-width="2"/>
  </g>
</svg>
