<svg xmlns="http://www.w3.org/2000/svg" width="54.306" height="71.203" viewBox="0 0 54.306 71.203">
  <g id="rabot" transform="translate(-693.348 -72.898)">
    <path id="Path_991" data-name="Path 991" d="M87.66,220.655h4.894c2.032,0,3.577,1.044,3.577,2.947a2.449,2.449,0,0,1-1.774,2.476v.043A2.049,2.049,0,0,1,95.845,228c.215,1.345.072,2.633.43,2.761v.129H93.813c-.272-.157-.229-1.359-.386-2.375a1.5,1.5,0,0,0-1.7-1.46H90.193v3.835H87.66Zm4.436,4.521c1,0,1.517-.472,1.517-1.245,0-.744-.487-1.273-1.46-1.273h-1.96v2.518Z" transform="translate(606.357 -87.029)" fill="#10213f"/>
    <path id="Path_992" data-name="Path 992" d="M118.287,220.654h2.6l3.693,10.231h-2.661l-.6-1.846h-3.578l-.586,1.846H114.61Zm2.448,6.568-.773-2.476c-.172-.53-.4-1.445-.4-1.445h-.029s-.243.915-.415,1.445l-.787,2.476Z" transform="translate(589.865 -87.027)" fill="#10213f"/>
    <path id="Path_993" data-name="Path 993" d="M145.839,220.654h4.937a3.687,3.687,0,0,1,2.39.7,2.428,2.428,0,0,1,.887,1.96,2.007,2.007,0,0,1-1.431,2v.043a2.531,2.531,0,0,1,1.832,2.5,2.7,2.7,0,0,1-1.044,2.29,4,4,0,0,1-2.519.73h-5.051Zm4.565,4.05c.73,0,1.231-.358,1.231-1.031,0-.644-.472-1.016-1.216-1.016h-2.076V224.7Zm.2,4.15a1.192,1.192,0,0,0,1.345-1.2,1.22,1.22,0,0,0-1.374-1.231h-2.232v2.433Z" transform="translate(570.754 -87.027)" fill="#10213f"/>
    <path id="Path_994" data-name="Path 994" d="M173.38,225.474c0-3.062,1.961-5.338,5.051-5.338s5.066,2.276,5.066,5.338-1.961,5.338-5.066,5.338-5.051-2.275-5.051-5.338m7.541,0c0-1.86-.815-3.291-2.475-3.291s-2.49,1.43-2.49,3.291.844,3.277,2.49,3.277,2.475-1.416,2.475-3.277" transform="translate(553.9 -86.711)" fill="#10213f"/>
    <path id="Path_995" data-name="Path 995" d="M206.37,222.8h-2.976v-2.146h8.515V222.8H208.9v8.086H206.37Z" transform="translate(535.535 -87.027)" fill="#10213f"/>
    <path id="Path_996" data-name="Path 996" d="M140.24,78.269a14.121,14.121,0,0,0-14.106-14.1H100.04a14.121,14.121,0,0,0-14.106,14.1v26.095a14.092,14.092,0,0,0,25.987,7.569l.964-1.506,1.062,1.439a14.088,14.088,0,1,0,19.689-19.69l-1.44-1.062,1.508-.964a14.054,14.054,0,0,0,6.536-11.882m-29.895,26.095a10.306,10.306,0,1,1-20.612,0v-16.2l1.96,1.446a13.974,13.974,0,0,0,8.347,2.762h10.305Zm0-15.789H100.04a10.305,10.305,0,1,1,10.305-10.306ZM135.6,103.522a10.306,10.306,0,1,1-10.306-10.306A10.317,10.317,0,0,1,135.6,103.522m-9.465-14.948H114.146V78.269a13.971,13.971,0,0,0-2.762-8.346l-1.446-1.96h16.2a10.305,10.305,0,1,1,0,20.611" transform="translate(607.414 8.734)" fill="#10213f"/>
  </g>
</svg>
